<mxfile host="app.diagrams.net" agent="Mozilla/5.0 (Windows NT 10.0; Win64; x64) AppleWebKit/537.36 (KHTML, like Gecko) Chrome/128.0.0.0 Safari/537.36" version="24.7.15">
  <diagram name="Page-1" id="kDD53ToWYOqSkL0sNCB4">
    <mxGraphModel dx="1050" dy="563" grid="1" gridSize="10" guides="1" tooltips="1" connect="1" arrows="1" fold="1" page="1" pageScale="1" pageWidth="850" pageHeight="1100" math="0" shadow="0">
      <root>
        <mxCell id="0" />
        <mxCell id="1" parent="0" />
        <mxCell id="1LfPQCRlTLoIi5Cp8pra-2" value="admin" style="shape=umlActor;verticalLabelPosition=bottom;verticalAlign=top;html=1;outlineConnect=0;" vertex="1" parent="1">
          <mxGeometry x="100" y="190" width="30" height="60" as="geometry" />
        </mxCell>
        <mxCell id="1LfPQCRlTLoIi5Cp8pra-4" value="" style="whiteSpace=wrap;html=1;aspect=fixed;" vertex="1" parent="1">
          <mxGeometry x="250" y="70" width="330" height="330" as="geometry" />
        </mxCell>
        <mxCell id="1LfPQCRlTLoIi5Cp8pra-5" value="Login" style="ellipse;whiteSpace=wrap;html=1;" vertex="1" parent="1">
          <mxGeometry x="260" y="160" width="70" height="40" as="geometry" />
        </mxCell>
        <mxCell id="1LfPQCRlTLoIi5Cp8pra-6" value="Logout" style="ellipse;whiteSpace=wrap;html=1;" vertex="1" parent="1">
          <mxGeometry x="260" y="270" width="70" height="40" as="geometry" />
        </mxCell>
        <mxCell id="1LfPQCRlTLoIi5Cp8pra-7" value="Add Product" style="ellipse;whiteSpace=wrap;html=1;" vertex="1" parent="1">
          <mxGeometry x="380" y="90" width="100" height="40" as="geometry" />
        </mxCell>
        <mxCell id="1LfPQCRlTLoIi5Cp8pra-13" value="Manages Cart" style="ellipse;whiteSpace=wrap;html=1;" vertex="1" parent="1">
          <mxGeometry x="375" y="340" width="95" height="40" as="geometry" />
        </mxCell>
        <mxCell id="1LfPQCRlTLoIi5Cp8pra-14" value="Manages Product" style="ellipse;whiteSpace=wrap;html=1;" vertex="1" parent="1">
          <mxGeometry x="380" y="140" width="100" height="40" as="geometry" />
        </mxCell>
        <mxCell id="1LfPQCRlTLoIi5Cp8pra-15" value="Manages shipping" style="ellipse;whiteSpace=wrap;html=1;" vertex="1" parent="1">
          <mxGeometry x="376.5" y="290" width="102" height="35" as="geometry" />
        </mxCell>
        <mxCell id="1LfPQCRlTLoIi5Cp8pra-16" value="Payment Gateway" style="ellipse;whiteSpace=wrap;html=1;" vertex="1" parent="1">
          <mxGeometry x="375" y="240" width="105" height="40" as="geometry" />
        </mxCell>
        <mxCell id="1LfPQCRlTLoIi5Cp8pra-18" value="Order Products" style="ellipse;whiteSpace=wrap;html=1;" vertex="1" parent="1">
          <mxGeometry x="380" y="190" width="105" height="40" as="geometry" />
        </mxCell>
        <mxCell id="1LfPQCRlTLoIi5Cp8pra-19" value="" style="endArrow=none;html=1;rounded=0;entryX=0;entryY=0.5;entryDx=0;entryDy=0;" edge="1" parent="1">
          <mxGeometry width="50" height="50" relative="1" as="geometry">
            <mxPoint x="130" y="210.0020689655172" as="sourcePoint" />
            <mxPoint x="260" y="174.14" as="targetPoint" />
          </mxGeometry>
        </mxCell>
        <mxCell id="1LfPQCRlTLoIi5Cp8pra-20" value="" style="endArrow=none;html=1;rounded=0;entryX=0;entryY=1;entryDx=0;entryDy=0;exitX=1;exitY=0.3333333333333333;exitDx=0;exitDy=0;exitPerimeter=0;" edge="1" parent="1" source="1LfPQCRlTLoIi5Cp8pra-2" target="1LfPQCRlTLoIi5Cp8pra-6">
          <mxGeometry width="50" height="50" relative="1" as="geometry">
            <mxPoint x="130" y="218.2" as="sourcePoint" />
            <mxPoint x="252.81999999999994" y="340" as="targetPoint" />
          </mxGeometry>
        </mxCell>
        <mxCell id="1LfPQCRlTLoIi5Cp8pra-23" value="" style="endArrow=none;html=1;rounded=0;exitX=1;exitY=0;exitDx=0;exitDy=0;entryX=0;entryY=0.5;entryDx=0;entryDy=0;" edge="1" parent="1" source="1LfPQCRlTLoIi5Cp8pra-5" target="1LfPQCRlTLoIi5Cp8pra-7">
          <mxGeometry width="50" height="50" relative="1" as="geometry">
            <mxPoint x="330" y="170" as="sourcePoint" />
            <mxPoint x="380" y="120" as="targetPoint" />
          </mxGeometry>
        </mxCell>
        <mxCell id="1LfPQCRlTLoIi5Cp8pra-26" value="" style="endArrow=none;html=1;rounded=0;" edge="1" parent="1" source="1LfPQCRlTLoIi5Cp8pra-5">
          <mxGeometry width="50" height="50" relative="1" as="geometry">
            <mxPoint x="330" y="210" as="sourcePoint" />
            <mxPoint x="380" y="160" as="targetPoint" />
          </mxGeometry>
        </mxCell>
        <mxCell id="1LfPQCRlTLoIi5Cp8pra-28" value="" style="endArrow=none;html=1;rounded=0;entryX=0;entryY=0.5;entryDx=0;entryDy=0;" edge="1" parent="1" source="1LfPQCRlTLoIi5Cp8pra-5" target="1LfPQCRlTLoIi5Cp8pra-18">
          <mxGeometry width="50" height="50" relative="1" as="geometry">
            <mxPoint x="310" y="250" as="sourcePoint" />
            <mxPoint x="360" y="200" as="targetPoint" />
          </mxGeometry>
        </mxCell>
        <mxCell id="1LfPQCRlTLoIi5Cp8pra-32" value="" style="endArrow=none;html=1;rounded=0;entryX=0;entryY=0.5;entryDx=0;entryDy=0;exitX=1;exitY=1;exitDx=0;exitDy=0;" edge="1" parent="1" source="1LfPQCRlTLoIi5Cp8pra-5" target="1LfPQCRlTLoIi5Cp8pra-16">
          <mxGeometry width="50" height="50" relative="1" as="geometry">
            <mxPoint x="290" y="200" as="sourcePoint" />
            <mxPoint x="340" y="150" as="targetPoint" />
          </mxGeometry>
        </mxCell>
        <mxCell id="1LfPQCRlTLoIi5Cp8pra-33" value="" style="endArrow=none;html=1;rounded=0;exitX=0;exitY=0.5;exitDx=0;exitDy=0;entryX=0.691;entryY=0.965;entryDx=0;entryDy=0;entryPerimeter=0;" edge="1" parent="1" source="1LfPQCRlTLoIi5Cp8pra-15" target="1LfPQCRlTLoIi5Cp8pra-5">
          <mxGeometry width="50" height="50" relative="1" as="geometry">
            <mxPoint x="260" y="240" as="sourcePoint" />
            <mxPoint x="310" y="190" as="targetPoint" />
          </mxGeometry>
        </mxCell>
        <mxCell id="1LfPQCRlTLoIi5Cp8pra-34" value="Logout" style="ellipse;whiteSpace=wrap;html=1;" vertex="1" parent="1">
          <mxGeometry x="500" y="270" width="70" height="40" as="geometry" />
        </mxCell>
        <mxCell id="1LfPQCRlTLoIi5Cp8pra-36" value="Login" style="ellipse;whiteSpace=wrap;html=1;" vertex="1" parent="1">
          <mxGeometry x="500" y="170" width="70" height="40" as="geometry" />
        </mxCell>
        <mxCell id="1LfPQCRlTLoIi5Cp8pra-37" value="users" style="shape=umlActor;verticalLabelPosition=bottom;verticalAlign=top;html=1;outlineConnect=0;" vertex="1" parent="1">
          <mxGeometry x="710" y="200" width="30" height="60" as="geometry" />
        </mxCell>
        <mxCell id="1LfPQCRlTLoIi5Cp8pra-40" value="" style="endArrow=none;html=1;rounded=0;entryX=0;entryY=0.3333333333333333;entryDx=0;entryDy=0;entryPerimeter=0;" edge="1" parent="1" target="1LfPQCRlTLoIi5Cp8pra-37">
          <mxGeometry width="50" height="50" relative="1" as="geometry">
            <mxPoint x="570" y="290" as="sourcePoint" />
            <mxPoint x="620" y="240" as="targetPoint" />
          </mxGeometry>
        </mxCell>
        <mxCell id="1LfPQCRlTLoIi5Cp8pra-41" value="" style="endArrow=none;html=1;rounded=0;entryX=0;entryY=0.3333333333333333;entryDx=0;entryDy=0;entryPerimeter=0;" edge="1" parent="1" target="1LfPQCRlTLoIi5Cp8pra-37">
          <mxGeometry width="50" height="50" relative="1" as="geometry">
            <mxPoint x="570" y="190" as="sourcePoint" />
            <mxPoint x="620" y="140" as="targetPoint" />
          </mxGeometry>
        </mxCell>
        <mxCell id="1LfPQCRlTLoIi5Cp8pra-42" value="" style="endArrow=none;html=1;rounded=0;exitX=0.941;exitY=0.345;exitDx=0;exitDy=0;exitPerimeter=0;" edge="1" parent="1" source="1LfPQCRlTLoIi5Cp8pra-13">
          <mxGeometry width="50" height="50" relative="1" as="geometry">
            <mxPoint x="480" y="260" as="sourcePoint" />
            <mxPoint x="530" y="210" as="targetPoint" />
          </mxGeometry>
        </mxCell>
        <mxCell id="1LfPQCRlTLoIi5Cp8pra-43" value="" style="endArrow=none;html=1;rounded=0;" edge="1" parent="1">
          <mxGeometry width="50" height="50" relative="1" as="geometry">
            <mxPoint x="470" y="250" as="sourcePoint" />
            <mxPoint x="520" y="200" as="targetPoint" />
          </mxGeometry>
        </mxCell>
        <mxCell id="1LfPQCRlTLoIi5Cp8pra-44" value="" style="endArrow=none;html=1;rounded=0;entryX=0;entryY=0.5;entryDx=0;entryDy=0;" edge="1" parent="1" target="1LfPQCRlTLoIi5Cp8pra-36">
          <mxGeometry width="50" height="50" relative="1" as="geometry">
            <mxPoint x="480" y="200" as="sourcePoint" />
            <mxPoint x="530" y="150" as="targetPoint" />
          </mxGeometry>
        </mxCell>
      </root>
    </mxGraphModel>
  </diagram>
</mxfile>
